<svg fill="none" height="25" viewBox="0 0 25 25" width="25" xmlns="http://www.w3.org/2000/svg"><path d="m13.5617 11.9304-1.6515-8.83853-1.7517-1.80818-2.63886.82313-.92617 2.63053 1.65147 8.83845 3.48416 3.5966" fill="#fec1ee"/><path d="m11.5327 17.3638-3.48414-3.5965c-.0385-.0398-.0573-.0986-.07611-.1574l-1.63222-8.81864c.00045-.03895-.01836-.09777.02104-.13593l.90647-2.61145c.02059-.09699.07968-.15423.15802-.1916l2.63894-.82314c.1173-.03658.2144-.01513.2914.06435l1.7324 1.78832c.0385.03974.0573.09856.0761.15738l1.6515 8.83851c.0372.1566-.0618.2909-.218.3267s-.2914-.0643-.3286-.2209l-1.6134-8.75981-1.5784-1.62936-2.34574.73168-.84604 2.43735 1.61431 8.68194 3.42637 3.5369c.1155.1192.1137.275-.0045.3895-.1181.1145-.2739.1113-.3894-.0079z" fill="#3d3dff"/><path d="m11.81 10.1221 5.3168-1.64545 1.7324 1.78835.8452 4.4196-.9262 2.6305-5.2975 1.6654-3.48408-3.5965" fill="#fec1ee"/><path d="m13.2838 19.1713-3.48414-3.5965c-.1155-.1192-.11371-.275.00447-.3895s.27397-.1113.38947.0079l3.3686 3.4773 5.0043-1.5739.846-2.4374-.808-4.263-1.5592-1.60949-5.1408 1.59059c-.137.0557-.2919-.0254-.3291-.182-.0568-.1375.0229-.29171.1791-.32751l5.2975-1.66535c.0976-.0175.1947.00395.2717.08343l1.7325 1.78833c.0385.0397.0573.0985.0761.1574l.8452 4.4196c-.0005.039.0183.0978-.0211.1359l-.9064 2.6115c-.0399.0771-.099.1344-.1773.1717l-5.2975 1.6654c-.0976.0175-.2337-.0048-.2914-.0644z" fill="#3d3dff"/><path d="m16.8105 14.9057c.5291-.0544.8788-.81.781-1.6879-.0977-.8778-.6058-1.5454-1.1349-1.491-.5291.0543-.8787.81-.781 1.6878.0977.8779.6058 1.5454 1.1349 1.4911z" fill="#ff7698"/><path d="m15.9633 14.8037c-.5582-.5763-.7793-1.6716-.4776-2.5032.1611-.4642.4763-.7695.8277-.8403.3124-.0716.6616.0523.9504.3504.5582.5762.7793 1.6716.4776 2.5031-.1611.4643-.4763.7696-.8277.8404-.3124.0716-.6616-.0524-.9504-.3504zm.9262-2.6306c-.0962-.0993-.2507-.2193-.4458-.1843-.176.0549-.3335.2075-.4343.4977-.2215.6383-.0564 1.5183.3479 1.9355.0962.0994.2507.2194.4458.1844.176-.0549.3335-.2075.4343-.4977.2018-.6193.0564-1.5183-.3479-1.9356z" fill="#3d3dff"/><path d="m9.8393 7.72147c.5291-.05435.8788-.81002.781-1.68785-.0977-.87782-.6058-1.54538-1.13492-1.49103-.52907.05434-.87875.81002-.78102 1.68784.09773.87783.60586 1.54539 1.13494 1.49104z" fill="#ffff60"/><path d="m9.01441 7.63051c-.55823-.57624-.77938-1.67161-.47767-2.50314.16115-.46426.47629-.76955.8277-.84035.31246-.07159.66166.05236.95036.35042.5582.57623.7794 1.6716.4777 2.50314-.1612.46425-.4763.76955-.82772.84035-.33171.05172-.66164-.05237-.95037-.35042zm.92616-2.63053c-.09624-.09935-.25068-.21937-.44586-.18436-.17593.05488-.3335.20752-.43422.49769-.22158.63835-.05639 1.51831.34785 1.93558.09624.09935.25068.21936.44586.18436.1759-.05488.3335-.20753.4342-.49769.2019-.61927.0564-1.51831-.34783-1.93558z" fill="#3d3dff"/><path d="m12.4582 14.7327-1.7324-1.7884c-.1155-.1192-.1137-.275.0045-.3895s.2739-.1113.3894.0079l1.7325 1.7883c.1155.1193.1137.2751-.0045.3895-.1182.1145-.274.1114-.3895-.0078z" fill="#3d3dff"/><path d="m12.6897 21.7112-7.19919-7.4314c-.42348-.4372-.39618-1.1184.01745-1.5191l.23636-.229c.43332-.4198 1.11465-.3865 1.51888.0308l7.18 7.4116c.4235.4371.3962 1.1184-.0175 1.5191l-.2363.2289c-.3944.4206-1.0954.4064-1.4997-.0109z" fill="#05f293"/><path d="m12.4928 21.902-7.19924-7.4314c-.51973-.5365-.50989-1.3935.02192-1.9086l.23636-.229c.5318-.5152 1.38861-.4978 1.90834.0387l7.18002 7.4115c.5197.5365.5098 1.3935-.022 1.9086l-.2363.229c-.5126.5351-1.3694.5177-1.8891-.0188zm-5.42655-9.1487c-.30799-.318-.81428-.3282-1.12943-.0229l-.23636.229c-.31514.3053-.32096.8116-.01297 1.1295l7.18001 7.4116c.308.318.8143.3282 1.1294.0229l.2364-.229c.3151-.3053.3209-.8116.0129-1.1295z" fill="#3d3dff"/><path d="m15.2941 13.7187.081-7.05021-1.7325-1.78831-3.5051-.07103-1.79239 1.73638-.10021 7.03027 3.4841 3.5965" fill="#fec1ee"/><path d="m11.5321 17.3631-3.48415-3.5965c-.05775-.0596-.07655-.1184-.07566-.1963l.10021-7.03031c.0009-.07791.02104-.13594.08013-.19318l1.77269-1.71729c.05909-.05725.11778-.07554.19558-.07396l3.5052.07102c.0976-.0175.1558.00316.2135.06277l1.7324 1.78832c.0578.05961.0766.11843.0757.19633l-.081 7.0502c-.0018.1558-.1199.2703-.2757.2671-.1558-.0031-.2713-.1224-.2695-.2782l.0796-6.93329-1.5784-1.62936-3.3104-.06708-1.61515 1.56465-.07827 6.81648 3.40712 3.517c.1155.1192.1137.275-.0045.3895s-.2739.1114-.3894-.0079z" fill="#3d3dff"/><path d="m13.5617 11.9304 7.0492.1428 1.7324 1.7883-.0403 3.5056-1.7924 1.7364-7.0299-.123-3.48411-3.5965" fill="#fec1ee"/><path d="m13.2838 19.1713-3.48416-3.5965c-.1155-.1192-.11371-.275.00447-.3895s.27399-.1113.38949.0079l3.4071 3.517 6.8155.1381 1.6151-1.5646.038-3.3109-1.5784-1.6293-6.9324-.1405c-.1557-.0032-.2712-.1224-.2694-.2782.0017-.1558.1199-.2703.2757-.2671l7.0492.1428c.0586-.0183.1361.0223.1938.0819l1.7325 1.7883c.0577.0596.0765.1184.0756.1963l-.0402 3.5056c-.0009.0779-.0211.136-.0802.1932l-1.7726 1.7173c-.0591.0572-.1178.0755-.1957.074l-7.0496-.1039c-.0779-.0016-.1553-.0421-.1938-.0819z" fill="#3d3dff"/><path d="m17.912 16.421c.4784.4938 1.2631.5097 1.7526.0355s.4985-1.259.0201-1.7528c-.4784-.4939-1.263-.5098-1.7526-.0355-.4895.4742-.4985 1.2589-.0201 1.7528z" fill="#ff7698"/><path d="m17.715 16.6118c-.5774-.5961-.5663-1.5699.0246-2.1423.5909-.5725 1.565-.5917 2.1618.0243.5967.616.5663 1.5699-.0246 2.1423-.5909.5725-1.5843.5718-2.1618-.0243zm1.7924-1.7364c-.3657-.3775-.9888-.3901-1.3631-.0276-.3742.3625-.3814.9858-.0156 1.3633.3657.3775.9888.3902 1.3631.0276.3742-.3625.3814-.9857.0156-1.3633z" fill="#3d3dff"/><path d="m10.9438 9.22797c.4784.49383 1.263.50973 1.7525.03551.4896-.47422.4986-1.25897.0202-1.7528-.4784-.49384-1.2631-.50973-1.7526-.03552-.4895.47422-.4985 1.25898-.0201 1.75281z" fill="#ffff60"/><g fill="#3d3dff"><path d="m10.7468 9.4188c-.5775-.5961-.5663-1.56988.0246-2.14231.5909-.57244 1.5843-.57179 2.1617.02432.5775.5961.5663 1.56988-.0246 2.14232-.5909.57247-1.565.59167-2.1617-.02433zm1.7924-1.73637c-.3657-.37754-.9889-.39016-1.3631-.02762s-.3814.98576-.0157 1.36329c.3658.37754.9889.39016 1.3631.02762.3743-.36254.4007-.96589.0157-1.36329z"/><path d="m13.3245 15.6268-1.7325-1.7884c-.1155-.1192-.1137-.275.0045-.3895s.274-.1113.3894.0079l1.7325 1.7883c.1155.1193.1137.2751-.0045.3896-.1182.1144-.274.1113-.3894-.0079z"/><path d="m6.27526 15.484c-.11549-.1193-.1137-.2751.00448-.3896l1.77268-1.7172c.11818-.1145.27397-.1114.38946.0078.1155.1193.11371.2751-.00447.3896l-1.77269 1.7172c-.11818.1145-.27396.1114-.38946-.0078z"/><path d="m8.02694 17.2921c-.11549-.1192-.11371-.275.00447-.3895l1.77269-1.7173c.11818-.1145.274-.1113.3895.0079s.1137.275-.0045.3895l-1.7727 1.7173c-.11818.1145-.29321.0915-.38946-.0079z"/><path d="m9.75939 19.0805c-.11549-.1193-.1137-.2751.00448-.3896l1.77273-1.7173c.1181-.1144.2739-.1113.3894.0079.1155.1193.1137.2751-.0045.3896l-1.7726 1.7172c-.1182.1145-.27401.1114-.38951-.0078z"/><path d="m11.5111 20.8886c-.1155-.1192-.1137-.275.0044-.3895l1.7727-1.7173c.1182-.1145.274-.1113.3895.0079s.1137.275-.0045.3895l-1.7727 1.7173c-.1181.1145-.2932.0915-.3894-.0079z"/></g></svg>